{
	"asset":{
		"generator":"Khronos glTF Blender I/O v5.1.18",
		"version":"2.0"
	},
	"extensionsUsed":[
		"KHR_materials_specular"
	],
	"scene":0,
	"scenes":[
		{
			"extras":{
				"blendermcp_server_running":1,
				"blendermcp_use_sketchfab":1,
				"blendermcp_sketchfab_api_key":"7fdafa50b92e422b9e222b87c588ee5e"
			},
			"name":"Scene",
			"nodes":[
				47,
				48,
				49,
				50,
				51,
				52,
				53,
				54,
				55,
				56,
				57,
				58
			]
		}
	],
	"nodes":[
		{
			"mesh":0,
			"name":"Material2"
		},
		{
			"children":[
				0
			],
			"name":"instance_0",
			"translation":[
				0,
				0.7086629867553711,
				0
			]
		},
		{
			"mesh":1,
			"name":"Material2.001"
		},
		{
			"children":[
				2
			],
			"name":"instance_1",
			"rotation":[
				-0.5,
				-0.5,
				-0.5,
				0.5
			]
		},
		{
			"mesh":2,
			"name":"Material2.002"
		},
		{
			"children":[
				4
			],
			"name":"instance_2",
			"rotation":[
				-0.5,
				0.5,
				0.5,
				0.5
			],
			"scale":[
				-1.0000001192092896,
				-1,
				-1
			],
			"translation":[
				0,
				27.559059143066406,
				0
			]
		},
		{
			"mesh":3,
			"name":"Material2.003"
		},
		{
			"children":[
				6
			],
			"name":"instance_3",
			"rotation":[
				0.5112931728363037,
				0,
				0,
				0.8594064116477966
			],
			"translation":[
				0,
				13.149609565734863,
				15.331920623779297
			]
		},
		{
			"mesh":4,
			"name":"Material2.004"
		},
		{
			"children":[
				8
			],
			"name":"instance_4",
			"rotation":[
				0,
				0,
				-1,
				3.828568539859144e-16
			],
			"scale":[
				-1,
				-1,
				-1.0000001192092896
			],
			"translation":[
				0,
				0.708662211894989,
				29.52756118774414
			]
		},
		{
			"mesh":5,
			"name":"Material2.005"
		},
		{
			"children":[
				10
			],
			"name":"instance_5",
			"rotation":[
				-0.17405667901039124,
				-0.17405667901039124,
				-0.6853497624397278,
				0.685349702835083
			],
			"translation":[
				0,
				26.85038948059082,
				7.086615085601807
			]
		},
		{
			"mesh":6,
			"name":"Material2.006"
		},
		{
			"children":[
				12
			],
			"name":"instance_6",
			"rotation":[
				0.3615387976169586,
				0.361538827419281,
				-0.6076921224594116,
				0.6076921224594116
			],
			"translation":[
				0,
				12.811460494995117,
				14.709131240844727
			]
		},
		{
			"children":[
				1,
				3,
				5,
				7,
				9,
				11,
				13
			],
			"name":"group_0",
			"translation":[
				0,
				0,
				0.11811021715402603
			]
		},
		{
			"mesh":7,
			"name":"Material2.010"
		},
		{
			"children":[
				15
			],
			"name":"instance_10",
			"translation":[
				67.3218994140625,
				0,
				0.11811020970344543
			]
		},
		{
			"mesh":8,
			"name":"Material2.011"
		},
		{
			"children":[
				17
			],
			"name":"instance_11",
			"rotation":[
				0,
				1,
				0,
				3.828568275161348e-16
			],
			"scale":[
				-1,
				-1,
				-1.0000001192092896
			],
			"translation":[
				0.5905494689941406,
				24.488189697265625,
				0.11811020970344543
			]
		},
		{
			"mesh":9,
			"name":"Material2.012"
		},
		{
			"children":[
				19
			],
			"name":"instance_12",
			"translation":[
				0.5905494689941406,
				0.7086629867553711,
				0.11811021715402603
			]
		},
		{
			"mesh":10,
			"name":"Material2.007"
		},
		{
			"children":[
				21
			],
			"name":"instance_7",
			"rotation":[
				0,
				0,
				1,
				1.3535840607007896e-15
			],
			"translation":[
				6.102363586425781,
				24.488189697265625,
				0.11811020970344543
			]
		},
		{
			"mesh":11,
			"name":"Material2.008"
		},
		{
			"children":[
				23
			],
			"name":"instance_8",
			"rotation":[
				1,
				0,
				0,
				7.105427357601002e-15
			],
			"scale":[
				-1,
				-1,
				-1.0000001192092896
			],
			"translation":[
				6.102363586425781,
				0.7086629867553711,
				0.11811021715402603
			]
		},
		{
			"mesh":12,
			"name":"Material2.009"
		},
		{
			"children":[
				25
			],
			"name":"instance_9",
			"rotation":[
				0,
				1,
				0,
				3.828568275161348e-16
			],
			"scale":[
				-1,
				-1,
				-1.0000001192092896
			],
			"translation":[
				67.3218994140625,
				25.19685173034668,
				0.11811021715402603
			]
		},
		{
			"children":[
				16,
				18,
				20,
				22,
				24,
				26
			],
			"name":"group_1",
			"translation":[
				0.5905494689941406,
				1.1811027526855469,
				0
			]
		},
		{
			"mesh":13,
			"name":"Material2.013"
		},
		{
			"children":[
				28
			],
			"name":"instance_13",
			"rotation":[
				0,
				-0.7071068286895752,
				0,
				0.7071067094802856
			],
			"translation":[
				68.89763641357422,
				0,
				0.11811021715402603
			]
		},
		{
			"mesh":14,
			"name":"Material2.014"
		},
		{
			"children":[
				30
			],
			"name":"instance_14",
			"translation":[
				0,
				0,
				29.645671844482422
			]
		},
		{
			"children":[
				14,
				27,
				29,
				31
			],
			"name":"birou"
		},
		{
			"name":"group_2",
			"translation":[
				-26.990821838378906,
				-31.325740814208984,
				0
			]
		},
		{
			"mesh":15,
			"name":"Material2.015",
			"translation":[
				0,
				4.988163709640503e-06,
				0
			]
		},
		{
			"mesh":16,
			"name":"Material2.016",
			"translation":[
				0,
				4.988163709640503e-06,
				0
			]
		},
		{
			"mesh":17,
			"name":"Material2.017",
			"translation":[
				0,
				4.988163709640503e-06,
				0
			]
		},
		{
			"mesh":18,
			"name":"Material2.018",
			"translation":[
				0,
				4.988163709640503e-06,
				0
			]
		},
		{
			"mesh":19,
			"name":"Material2.019",
			"translation":[
				0,
				4.988163709640503e-06,
				0
			]
		},
		{
			"mesh":20,
			"name":"Material2.020",
			"translation":[
				0,
				4.988163709640503e-06,
				0
			]
		},
		{
			"mesh":21,
			"name":"Material2.021",
			"translation":[
				0,
				4.988163709640503e-06,
				0
			]
		},
		{
			"mesh":22,
			"name":"Material2.022",
			"translation":[
				0,
				4.988163709640503e-06,
				0
			]
		},
		{
			"mesh":23,
			"name":"Material2.023",
			"translation":[
				0,
				4.988163709640503e-06,
				0
			]
		},
		{
			"children":[
				34,
				35,
				36,
				37,
				38,
				39,
				40,
				41,
				42
			],
			"name":"reviste",
			"rotation":[
				0.37206289172172546,
				-0.3505033552646637,
				0.6098877191543579,
				0.6056019067764282
			],
			"scale":[
				0.6660000085830688,
				0.6659999489784241,
				0.6660000085830688
			],
			"translation":[
				7.364818572998047,
				12.67737102508545,
				15.635730743408203
			]
		},
		{
			"name":"ID1",
			"translation":[
				-6.773570930818096e-06,
				0,
				6.4373016357421875e-06
			]
		},
		{
			"children":[
				44
			],
			"name":"skp_camera_Last_Saved_SketchUp_View",
			"rotation":[
				0.6266080737113953,
				-0.20904119312763214,
				-0.2375919222831726,
				0.7121897339820862
			],
			"translation":[
				-30.04928207397461,
				-60.171592712402344,
				27.87253189086914
			]
		},
		{
			"mesh":24,
			"name":"Table_Divider_Tape",
			"rotation":[
				0.70710688829422,
				0,
				0,
				0.7071066498756409
			],
			"scale":[
				68.89763641357422,
				41.36484146118164,
				34.4488639831543
			],
			"translation":[
				34.44881820678711,
				13.77952766418457,
				31.03396987915039
			]
		},
		{
			"children":[
				32,
				33,
				43,
				45,
				46
			],
			"name":"Sketchfab Model",
			"rotation":[
				-0.70710688829422,
				0,
				0,
				0.7071066498756409
			],
			"scale":[
				0.014514286071062088,
				0.029028533026576042,
				0.024175124242901802
			],
			"translation":[
				-0.5,
				0,
				0.3999996483325958
			]
		},
		{
			"mesh":25,
			"name":"A_Left",
			"translation":[
				-0.2800000011920929,
				0.7505000233650208,
				0
			]
		},
		{
			"mesh":26,
			"name":"A_Right",
			"translation":[
				-0.2199999988079071,
				0.7505000233650208,
				0
			]
		},
		{
			"mesh":27,
			"name":"A_Cross",
			"translation":[
				-0.25,
				0.7505000233650208,
				0
			]
		},
		{
			"mesh":28,
			"name":"B_Spine",
			"translation":[
				0.20000000298023224,
				0.7505000233650208,
				0
			]
		},
		{
			"mesh":29,
			"name":"B_Top",
			"translation":[
				0.23999999463558197,
				0.7505000233650208,
				-0.07999999821186066
			]
		},
		{
			"mesh":30,
			"name":"B_Mid",
			"translation":[
				0.23999999463558197,
				0.7505000233650208,
				0
			]
		},
		{
			"mesh":31,
			"name":"B_Bot",
			"translation":[
				0.23999999463558197,
				0.7505000233650208,
				0.07999999821186066
			]
		},
		{
			"mesh":32,
			"name":"B_TC1",
			"translation":[
				0.29249998927116394,
				0.7505000233650208,
				-0.05999999865889549
			]
		},
		{
			"mesh":33,
			"name":"B_TC2",
			"translation":[
				0.29249998927116394,
				0.7505000233650208,
				-0.019999999552965164
			]
		},
		{
			"mesh":34,
			"name":"B_BC1",
			"translation":[
				0.29249998927116394,
				0.7505000233650208,
				0.019999999552965164
			]
		},
		{
			"mesh":35,
			"name":"B_BC2",
			"translation":[
				0.29249998927116394,
				0.7505000233650208,
				0.05999999865889549
			]
		}
	],
	"materials":[
		{
			"doubleSided":true,
			"extensions":{
				"KHR_materials_specular":{
					"specularFactor":0.4000000059604645
				}
			},
			"name":"pal2.001",
			"pbrMetallicRoughness":{
				"baseColorTexture":{
					"index":0
				},
				"metallicFactor":0,
				"roughnessFactor":0.800000011920929
			}
		},
		{
			"doubleSided":true,
			"name":"Color_D06.001",
			"pbrMetallicRoughness":{
				"baseColorFactor":[
					0.800000011920929,
					0.6000000238418579,
					0,
					1
				],
				"metallicFactor":0,
				"roughnessFactor":0.6000000238418579
			}
		},
		{
			"doubleSided":true,
			"name":"Color_M01.001",
			"pbrMetallicRoughness":{
				"baseColorFactor":[
					0.886273980140686,
					0.886273980140686,
					0.886273980140686,
					1
				],
				"metallicFactor":0,
				"roughnessFactor":0.6000000238418579
			}
		},
		{
			"doubleSided":true,
			"name":"Dwell_magazines_Material.001",
			"pbrMetallicRoughness":{
				"baseColorTexture":{
					"index":1
				},
				"metallicFactor":0,
				"roughnessFactor":0.6000000238418579
			}
		},
		{
			"doubleSided":true,
			"name":"Tape_Material",
			"pbrMetallicRoughness":{
				"baseColorFactor":[
					0.02500000037252903,
					0.18000000715255737,
					0.05000000074505806,
					1
				],
				"metallicFactor":0,
				"roughnessFactor":0.5
			}
		}
	],
	"meshes":[
		{
			"name":"Material2.025",
			"primitives":[
				{
					"attributes":{
						"POSITION":0,
						"NORMAL":1,
						"TEXCOORD_0":2,
						"TANGENT":3
					},
					"indices":4,
					"material":0
				}
			]
		},
		{
			"name":"Material2.026",
			"primitives":[
				{
					"attributes":{
						"POSITION":5,
						"NORMAL":6,
						"TEXCOORD_0":7,
						"TANGENT":8
					},
					"indices":9,
					"material":0
				}
			]
		},
		{
			"name":"Material2.027",
			"primitives":[
				{
					"attributes":{
						"POSITION":10,
						"NORMAL":11,
						"TEXCOORD_0":12,
						"TANGENT":13
					},
					"indices":14,
					"material":0
				}
			]
		},
		{
			"name":"Material2.028",
			"primitives":[
				{
					"attributes":{
						"POSITION":15,
						"NORMAL":16,
						"TEXCOORD_0":17,
						"TANGENT":18
					},
					"indices":19,
					"material":0
				}
			]
		},
		{
			"name":"Material2.029",
			"primitives":[
				{
					"attributes":{
						"POSITION":20,
						"NORMAL":21,
						"TEXCOORD_0":22,
						"TANGENT":23
					},
					"indices":24,
					"material":0
				}
			]
		},
		{
			"name":"Material2.030",
			"primitives":[
				{
					"attributes":{
						"POSITION":25,
						"NORMAL":26,
						"TEXCOORD_0":27,
						"TANGENT":28
					},
					"indices":29,
					"material":0
				}
			]
		},
		{
			"name":"Material2.031",
			"primitives":[
				{
					"attributes":{
						"POSITION":30,
						"NORMAL":31,
						"TEXCOORD_0":32,
						"TANGENT":33
					},
					"indices":34,
					"material":0
				}
			]
		},
		{
			"name":"Material2.035",
			"primitives":[
				{
					"attributes":{
						"POSITION":35,
						"NORMAL":36,
						"TEXCOORD_0":37,
						"TANGENT":38
					},
					"indices":39,
					"material":1
				}
			]
		},
		{
			"name":"Material2.036",
			"primitives":[
				{
					"attributes":{
						"POSITION":40,
						"NORMAL":41,
						"TEXCOORD_0":42,
						"TANGENT":43
					},
					"indices":44,
					"material":1
				}
			]
		},
		{
			"name":"Material2.037",
			"primitives":[
				{
					"attributes":{
						"POSITION":45,
						"NORMAL":46,
						"TEXCOORD_0":47,
						"TANGENT":48
					},
					"indices":49,
					"material":1
				}
			]
		},
		{
			"name":"Material2.032",
			"primitives":[
				{
					"attributes":{
						"POSITION":50,
						"NORMAL":51,
						"TEXCOORD_0":52,
						"TANGENT":53
					},
					"indices":49,
					"material":1
				}
			]
		},
		{
			"name":"Material2.033",
			"primitives":[
				{
					"attributes":{
						"POSITION":54,
						"NORMAL":55,
						"TEXCOORD_0":56,
						"TANGENT":57
					},
					"indices":44,
					"material":1
				}
			]
		},
		{
			"name":"Material2.034",
			"primitives":[
				{
					"attributes":{
						"POSITION":58,
						"NORMAL":59,
						"TEXCOORD_0":60,
						"TANGENT":61
					},
					"indices":62,
					"material":1
				}
			]
		},
		{
			"name":"Material2.038",
			"primitives":[
				{
					"attributes":{
						"POSITION":63,
						"NORMAL":64,
						"TEXCOORD_0":65,
						"TANGENT":66
					},
					"indices":67,
					"material":2
				}
			]
		},
		{
			"name":"Material2.039",
			"primitives":[
				{
					"attributes":{
						"POSITION":68,
						"NORMAL":69,
						"TEXCOORD_0":70,
						"TANGENT":71
					},
					"indices":72,
					"material":2
				}
			]
		},
		{
			"name":"Material2.040",
			"primitives":[
				{
					"attributes":{
						"POSITION":73,
						"NORMAL":74,
						"TEXCOORD_0":75,
						"TANGENT":76
					},
					"indices":77,
					"material":3
				}
			]
		},
		{
			"name":"Material2.041",
			"primitives":[
				{
					"attributes":{
						"POSITION":78,
						"NORMAL":79,
						"TEXCOORD_0":80,
						"TANGENT":81
					},
					"indices":82,
					"material":3
				}
			]
		},
		{
			"name":"Material2.042",
			"primitives":[
				{
					"attributes":{
						"POSITION":83,
						"NORMAL":84,
						"TEXCOORD_0":85,
						"TANGENT":86
					},
					"indices":87,
					"material":3
				}
			]
		},
		{
			"name":"Material2.043",
			"primitives":[
				{
					"attributes":{
						"POSITION":88,
						"NORMAL":89,
						"TEXCOORD_0":90,
						"TANGENT":91
					},
					"indices":92,
					"material":3
				}
			]
		},
		{
			"name":"Material2.044",
			"primitives":[
				{
					"attributes":{
						"POSITION":93,
						"NORMAL":94,
						"TEXCOORD_0":95,
						"TANGENT":96
					},
					"indices":97,
					"material":3
				}
			]
		},
		{
			"name":"Material2.045",
			"primitives":[
				{
					"attributes":{
						"POSITION":98,
						"NORMAL":99,
						"TEXCOORD_0":100,
						"TANGENT":101
					},
					"indices":102,
					"material":3
				}
			]
		},
		{
			"name":"Material2.046",
			"primitives":[
				{
					"attributes":{
						"POSITION":103,
						"NORMAL":104,
						"TEXCOORD_0":105,
						"TANGENT":106
					},
					"indices":107,
					"material":3
				}
			]
		},
		{
			"name":"Material2.047",
			"primitives":[
				{
					"attributes":{
						"POSITION":108,
						"NORMAL":109,
						"TEXCOORD_0":110,
						"TANGENT":111
					},
					"indices":112,
					"material":3
				}
			]
		},
		{
			"name":"Material2.048",
			"primitives":[
				{
					"attributes":{
						"POSITION":113,
						"NORMAL":114,
						"TEXCOORD_0":115,
						"TANGENT":116
					},
					"indices":117,
					"material":3
				}
			]
		},
		{
			"name":"Cube.001",
			"primitives":[
				{
					"attributes":{
						"POSITION":118,
						"NORMAL":119,
						"TEXCOORD_0":120,
						"TANGENT":121
					},
					"indices":122,
					"material":4
				}
			]
		},
		{
			"name":"Cube.024",
			"primitives":[
				{
					"attributes":{
						"POSITION":123,
						"NORMAL":124,
						"TEXCOORD_0":125,
						"TANGENT":126
					},
					"indices":127,
					"material":4
				}
			]
		},
		{
			"name":"Cube.025",
			"primitives":[
				{
					"attributes":{
						"POSITION":128,
						"NORMAL":129,
						"TEXCOORD_0":130,
						"TANGENT":131
					},
					"indices":132,
					"material":4
				}
			]
		},
		{
			"name":"Cube.026",
			"primitives":[
				{
					"attributes":{
						"POSITION":133,
						"NORMAL":134,
						"TEXCOORD_0":135,
						"TANGENT":136
					},
					"indices":122,
					"material":4
				}
			]
		},
		{
			"name":"Cube.035",
			"primitives":[
				{
					"attributes":{
						"POSITION":137,
						"NORMAL":138,
						"TEXCOORD_0":139,
						"TANGENT":140
					},
					"indices":141,
					"material":4
				}
			]
		},
		{
			"name":"Cube.036",
			"primitives":[
				{
					"attributes":{
						"POSITION":142,
						"NORMAL":143,
						"TEXCOORD_0":144,
						"TANGENT":145
					},
					"indices":122,
					"material":4
				}
			]
		},
		{
			"name":"Cube.037",
			"primitives":[
				{
					"attributes":{
						"POSITION":146,
						"NORMAL":147,
						"TEXCOORD_0":148,
						"TANGENT":149
					},
					"indices":122,
					"material":4
				}
			]
		},
		{
			"name":"Cube.038",
			"primitives":[
				{
					"attributes":{
						"POSITION":150,
						"NORMAL":151,
						"TEXCOORD_0":152,
						"TANGENT":153
					},
					"indices":122,
					"material":4
				}
			]
		},
		{
			"name":"Cube.039",
			"primitives":[
				{
					"attributes":{
						"POSITION":154,
						"NORMAL":155,
						"TEXCOORD_0":156,
						"TANGENT":157
					},
					"indices":132,
					"material":4
				}
			]
		},
		{
			"name":"Cube.040",
			"primitives":[
				{
					"attributes":{
						"POSITION":158,
						"NORMAL":159,
						"TEXCOORD_0":160,
						"TANGENT":161
					},
					"indices":162,
					"material":4
				}
			]
		},
		{
			"name":"Cube.041",
			"primitives":[
				{
					"attributes":{
						"POSITION":163,
						"NORMAL":164,
						"TEXCOORD_0":165,
						"TANGENT":166
					},
					"indices":132,
					"material":4
				}
			]
		},
		{
			"name":"Cube.042",
			"primitives":[
				{
					"attributes":{
						"POSITION":167,
						"NORMAL":168,
						"TEXCOORD_0":169,
						"TANGENT":170
					},
					"indices":162,
					"material":4
				}
			]
		}
	],
	"textures":[
		{
			"sampler":0,
			"source":0
		},
		{
			"sampler":0,
			"source":1
		}
	],
	"images":[
		{
			"mimeType":"image/jpeg",
			"name":"pal2_baseColor",
			"uri":"pal2_baseColor.jpg"
		},
		{
			"mimeType":"image/jpeg",
			"name":"Dwell_magazines_Material_baseColor",
			"uri":"Dwell_magazines_Material_baseColor.jpg"
		}
	],
	"accessors":[
		{
			"bufferView":0,
			"componentType":5126,
			"count":96,
			"max":[
				7.874015808105469,
				26.1417293548584,
				0.7086613774299622
			],
			"min":[
				2.664535034107249e-17,
				0,
				0
			],
			"type":"VEC3"
		},
		{
			"bufferView":1,
			"componentType":5126,
			"count":96,
			"type":"VEC3"
		},
		{
			"bufferView":2,
			"componentType":5126,
			"count":96,
			"type":"VEC2"
		},
		{
			"bufferView":3,
			"componentType":5126,
			"count":96,
			"type":"VEC4"
		},
		{
			"bufferView":4,
			"componentType":5123,
			"count":132,
			"type":"SCALAR"
		},
		{
			"bufferView":5,
			"componentType":5126,
			"count":84,
			"max":[
				29.52756118774414,
				7.874015808105469,
				0.7086614370346069
			],
			"min":[
				1.3877791116536907e-17,
				-2.491339891276447e-16,
				2.2680270000966903e-17
			],
			"type":"VEC3"
		},
		{
			"bufferView":6,
			"componentType":5126,
			"count":84,
			"type":"VEC3"
		},
		{
			"bufferView":7,
			"componentType":5126,
			"count":84,
			"type":"VEC2"
		},
		{
			"bufferView":8,
			"componentType":5126,
			"count":84,
			"type":"VEC4"
		},
		{
			"bufferView":9,
			"componentType":5123,
			"count":132,
			"type":"SCALAR"
		},
		{
			"bufferView":10,
			"componentType":5126,
			"count":54,
			"max":[
				29.52756118774414,
				7.874015808105469,
				0.7086614370346069
			],
			"min":[
				1.3877791116536907e-17,
				-2.491339891276447e-16,
				2.2680270000966903e-17
			],
			"type":"VEC3"
		},
		{
			"bufferView":11,
			"componentType":5126,
			"count":54,
			"type":"VEC3"
		},
		{
			"bufferView":12,
			"componentType":5126,
			"count":54,
			"type":"VEC2"
		},
		{
			"bufferView":13,
			"componentType":5126,
			"count":54,
			"type":"VEC4"
		},
		{
			"bufferView":14,
			"componentType":5123,
			"count":132,
			"type":"SCALAR"
		},
		{
			"bufferView":15,
			"componentType":5126,
			"count":96,
			"max":[
				7.874015808105469,
				15.314680099487305,
				0.7086613774299622
			],
			"min":[
				-1.7545299861956333e-14,
				-3.5527141023169746e-15,
				0
			],
			"type":"VEC3"
		},
		{
			"bufferView":16,
			"componentType":5126,
			"count":96,
			"type":"VEC3"
		},
		{
			"bufferView":17,
			"componentType":5126,
			"count":96,
			"type":"VEC2"
		},
		{
			"bufferView":18,
			"componentType":5126,
			"count":96,
			"type":"VEC4"
		},
		{
			"bufferView":19,
			"componentType":5123,
			"count":132,
			"type":"SCALAR"
		},
		{
			"bufferView":20,
			"componentType":5126,
			"count":88,
			"max":[
				7.874015808105469,
				26.1417293548584,
				0.7086613774299622
			],
			"min":[
				2.664535034107249e-17,
				0,
				0
			],
			"type":"VEC3"
		},
		{
			"bufferView":21,
			"componentType":5126,
			"count":88,
			"type":"VEC3"
		},
		{
			"bufferView":22,
			"componentType":5126,
			"count":88,
			"type":"VEC2"
		},
		{
			"bufferView":23,
			"componentType":5126,
			"count":88,
			"type":"VEC4"
		},
		{
			"bufferView":24,
			"componentType":5123,
			"count":132,
			"type":"SCALAR"
		},
		{
			"bufferView":25,
			"componentType":5126,
			"count":96,
			"max":[
				30.099210739135742,
				7.874015808105469,
				0.7086614370346069
			],
			"min":[
				0.03206431120634079,
				1.419801030758984e-14,
				-3.0730968984815643e-12
			],
			"type":"VEC3"
		},
		{
			"bufferView":26,
			"componentType":5126,
			"count":96,
			"type":"VEC3"
		},
		{
			"bufferView":27,
			"componentType":5126,
			"count":96,
			"type":"VEC2"
		},
		{
			"bufferView":28,
			"componentType":5126,
			"count":96,
			"type":"VEC4"
		},
		{
			"bufferView":29,
			"componentType":5123,
			"count":132,
			"type":"SCALAR"
		},
		{
			"bufferView":30,
			"componentType":5126,
			"count":78,
			"max":[
				16.283750534057617,
				7.874015808105469,
				0.7086614370346069
			],
			"min":[
				3.5527141023169746e-15,
				1.3297590091279962e-16,
				-1.2434500416900595e-14
			],
			"type":"VEC3"
		},
		{
			"bufferView":31,
			"componentType":5126,
			"count":78,
			"type":"VEC3"
		},
		{
			"bufferView":32,
			"componentType":5126,
			"count":78,
			"type":"VEC2"
		},
		{
			"bufferView":33,
			"componentType":5126,
			"count":78,
			"type":"VEC4"
		},
		{
			"bufferView":34,
			"componentType":5123,
			"count":132,
			"type":"SCALAR"
		},
		{
			"bufferView":35,
			"componentType":5126,
			"count":24,
			"max":[
				0.5905512571334839,
				1.1811020374298096,
				6.800116025829084e-16
			],
			"min":[
				0,
				0,
				-0.11811020225286484
			],
			"type":"VEC3"
		},
		{
			"bufferView":36,
			"componentType":5126,
			"count":24,
			"type":"VEC3"
		},
		{
			"bufferView":37,
			"componentType":5126,
			"count":24,
			"type":"VEC2"
		},
		{
			"bufferView":38,
			"componentType":5126,
			"count":24,
			"type":"VEC4"
		},
		{
			"bufferView":39,
			"componentType":5123,
			"count":36,
			"type":"SCALAR"
		},
		{
			"bufferView":40,
			"componentType":5126,
			"count":100,
			"max":[
				0.5905511975288391,
				0.5905511975288391,
				1.6722729226218737e-14
			],
			"min":[
				-0.5905511975288391,
				-0.5905511975288391,
				-0.11811020225286484
			],
			"type":"VEC3"
		},
		{
			"bufferView":41,
			"componentType":5126,
			"count":100,
			"type":"VEC3"
		},
		{
			"bufferView":42,
			"componentType":5126,
			"count":100,
			"type":"VEC2"
		},
		{
			"bufferView":43,
			"componentType":5126,
			"count":100,
			"type":"VEC4"
		},
		{
			"bufferView":44,
			"componentType":5123,
			"count":276,
			"type":"SCALAR"
		},
		{
			"bufferView":45,
			"componentType":5126,
			"count":102,
			"max":[
				0.5905511975288391,
				0.5905511975288391,
				1.6722729226218737e-14
			],
			"min":[
				-0.5905511975288391,
				-0.5905511975288391,
				-0.11811020225286484
			],
			"type":"VEC3"
		},
		{
			"bufferView":46,
			"componentType":5126,
			"count":102,
			"type":"VEC3"
		},
		{
			"bufferView":47,
			"componentType":5126,
			"count":102,
			"type":"VEC2"
		},
		{
			"bufferView":48,
			"componentType":5126,
			"count":102,
			"type":"VEC4"
		},
		{
			"bufferView":49,
			"componentType":5123,
			"count":276,
			"type":"SCALAR"
		},
		{
			"bufferView":50,
			"componentType":5126,
			"count":102,
			"max":[
				0.5905511975288391,
				0.5905511975288391,
				1.6722729226218737e-14
			],
			"min":[
				-0.5905511975288391,
				-0.5905511975288391,
				-0.11811020225286484
			],
			"type":"VEC3"
		},
		{
			"bufferView":51,
			"componentType":5126,
			"count":102,
			"type":"VEC3"
		},
		{
			"bufferView":52,
			"componentType":5126,
			"count":102,
			"type":"VEC2"
		},
		{
			"bufferView":53,
			"componentType":5126,
			"count":102,
			"type":"VEC4"
		},
		{
			"bufferView":54,
			"componentType":5126,
			"count":100,
			"max":[
				0.5905511975288391,
				0.5905511975288391,
				1.6722729226218737e-14
			],
			"min":[
				-0.5905511975288391,
				-0.5905511975288391,
				-0.11811020225286484
			],
			"type":"VEC3"
		},
		{
			"bufferView":55,
			"componentType":5126,
			"count":100,
			"type":"VEC3"
		},
		{
			"bufferView":56,
			"componentType":5126,
			"count":100,
			"type":"VEC2"
		},
		{
			"bufferView":57,
			"componentType":5126,
			"count":100,
			"type":"VEC4"
		},
		{
			"bufferView":58,
			"componentType":5126,
			"count":24,
			"max":[
				0.5905512571334839,
				1.1811020374298096,
				6.800116025829084e-16
			],
			"min":[
				0,
				0,
				-0.11811020225286484
			],
			"type":"VEC3"
		},
		{
			"bufferView":59,
			"componentType":5126,
			"count":24,
			"type":"VEC3"
		},
		{
			"bufferView":60,
			"componentType":5126,
			"count":24,
			"type":"VEC2"
		},
		{
			"bufferView":61,
			"componentType":5126,
			"count":24,
			"type":"VEC4"
		},
		{
			"bufferView":62,
			"componentType":5123,
			"count":36,
			"type":"SCALAR"
		},
		{
			"bufferView":63,
			"componentType":5126,
			"count":64,
			"max":[
				29.527559280395508,
				27.559059143066406,
				2.2951443195343018
			],
			"min":[
				2.7755578924351364e-17,
				8.323500943347901e-17,
				0
			],
			"type":"VEC3"
		},
		{
			"bufferView":64,
			"componentType":5126,
			"count":64,
			"type":"VEC3"
		},
		{
			"bufferView":65,
			"componentType":5126,
			"count":64,
			"type":"VEC2"
		},
		{
			"bufferView":66,
			"componentType":5126,
			"count":64,
			"type":"VEC4"
		},
		{
			"bufferView":67,
			"componentType":5123,
			"count":132,
			"type":"SCALAR"
		},
		{
			"bufferView":68,
			"componentType":5126,
			"count":80,
			"max":[
				68.89763641357422,
				27.559059143066406,
				1.377953052520752
			],
			"min":[
				4.567775053195809e-17,
				2.5884059627392987e-17,
				0
			],
			"type":"VEC3"
		},
		{
			"bufferView":69,
			"componentType":5126,
			"count":80,
			"type":"VEC3"
		},
		{
			"bufferView":70,
			"componentType":5126,
			"count":80,
			"type":"VEC2"
		},
		{
			"bufferView":71,
			"componentType":5126,
			"count":80,
			"type":"VEC4"
		},
		{
			"bufferView":72,
			"componentType":5123,
			"count":132,
			"type":"SCALAR"
		},
		{
			"bufferView":73,
			"componentType":5126,
			"count":438,
			"max":[
				13.448500633239746,
				10.720849990844727,
				1.7806999683380127
			],
			"min":[
				0.11760009080171585,
				0.16989509761333466,
				1.5304499864578247
			],
			"type":"VEC3"
		},
		{
			"bufferView":74,
			"componentType":5126,
			"count":438,
			"type":"VEC3"
		},
		{
			"bufferView":75,
			"componentType":5126,
			"count":438,
			"type":"VEC2"
		},
		{
			"bufferView":76,
			"componentType":5126,
			"count":438,
			"type":"VEC4"
		},
		{
			"bufferView":77,
			"componentType":5123,
			"count":816,
			"type":"SCALAR"
		},
		{
			"bufferView":78,
			"componentType":5126,
			"count":456,
			"max":[
				13.537300109863281,
				10.821249961853027,
				0.5033005475997925
			],
			"min":[
				0.20645010471343994,
				0.2702445983886719,
				0.2529999911785126
			],
			"type":"VEC3"
		},
		{
			"bufferView":79,
			"componentType":5126,
			"count":456,
			"type":"VEC3"
		},
		{
			"bufferView":80,
			"componentType":5126,
			"count":456,
			"type":"VEC2"
		},
		{
			"bufferView":81,
			"componentType":5126,
			"count":456,
			"type":"VEC4"
		},
		{
			"bufferView":82,
			"componentType":5123,
			"count":816,
			"type":"SCALAR"
		},
		{
			"bufferView":83,
			"componentType":5126,
			"count":450,
			"max":[
				13.406149864196777,
				10.589851379394531,
				0.7550505995750427
			],
			"min":[
				0.07525002956390381,
				0.03884889930486679,
				0.504800021648407
			],
			"type":"VEC3"
		},
		{
			"bufferView":84,
			"componentType":5126,
			"count":450,
			"type":"VEC3"
		},
		{
			"bufferView":85,
			"componentType":5126,
			"count":450,
			"type":"VEC2"
		},
		{
			"bufferView":86,
			"componentType":5126,
			"count":450,
			"type":"VEC4"
		},
		{
			"bufferView":87,
			"componentType":5123,
			"count":816,
			"type":"SCALAR"
		},
		{
			"bufferView":88,
			"componentType":5126,
			"count":442,
			"max":[
				13.537300109863281,
				10.720849990844727,
				1.013350009918213
			],
			"min":[
				0.20645010471343994,
				0.16989518702030182,
				0.7631000876426697
			],
			"type":"VEC3"
		},
		{
			"bufferView":89,
			"componentType":5126,
			"count":442,
			"type":"VEC3"
		},
		{
			"bufferView":90,
			"componentType":5126,
			"count":442,
			"type":"VEC2"
		},
		{
			"bufferView":91,
			"componentType":5126,
			"count":442,
			"type":"VEC4"
		},
		{
			"bufferView":92,
			"componentType":5123,
			"count":816,
			"type":"SCALAR"
		},
		{
			"bufferView":93,
			"componentType":5126,
			"count":435,
			"max":[
				13.51820182800293,
				10.67710018157959,
				2.0358009338378906
			],
			"min":[
				0.18735018372535706,
				0.1261443942785263,
				1.7855499982833862
			],
			"type":"VEC3"
		},
		{
			"bufferView":94,
			"componentType":5126,
			"count":435,
			"type":"VEC3"
		},
		{
			"bufferView":95,
			"componentType":5126,
			"count":435,
			"type":"VEC2"
		},
		{
			"bufferView":96,
			"componentType":5126,
			"count":435,
			"type":"VEC4"
		},
		{
			"bufferView":97,
			"componentType":5123,
			"count":816,
			"type":"SCALAR"
		},
		{
			"bufferView":98,
			"componentType":5126,
			"count":418,
			"max":[
				13.330901145935059,
				10.642050743103027,
				2.2875499725341797
			],
			"min":[
				0,
				0.09109874069690704,
				2.0373001098632812
			],
			"type":"VEC3"
		},
		{
			"bufferView":99,
			"componentType":5126,
			"count":418,
			"type":"VEC3"
		},
		{
			"bufferView":100,
			"componentType":5126,
			"count":418,
			"type":"VEC2"
		},
		{
			"bufferView":101,
			"componentType":5126,
			"count":418,
			"type":"VEC4"
		},
		{
			"bufferView":102,
			"componentType":5123,
			"count":816,
			"type":"SCALAR"
		},
		{
			"bufferView":103,
			"componentType":5126,
			"count":463,
			"max":[
				13.418299674987793,
				10.841750144958496,
				0.25025051832199097
			],
			"min":[
				0.08740007877349854,
				0.2907981872558594,
				0
			],
			"type":"VEC3"
		},
		{
			"bufferView":104,
			"componentType":5126,
			"count":463,
			"type":"VEC3"
		},
		{
			"bufferView":105,
			"componentType":5126,
			"count":463,
			"type":"VEC2"
		},
		{
			"bufferView":106,
			"componentType":5126,
			"count":463,
			"type":"VEC4"
		},
		{
			"bufferView":107,
			"componentType":5123,
			"count":816,
			"type":"SCALAR"
		},
		{
			"bufferView":108,
			"componentType":5126,
			"count":443,
			"max":[
				13.400602340698242,
				10.550999641418457,
				1.2706000804901123
			],
			"min":[
				0.06974995136260986,
				0,
				1.0203498601913452
			],
			"type":"VEC3"
		},
		{
			"bufferView":109,
			"componentType":5126,
			"count":443,
			"type":"VEC3"
		},
		{
			"bufferView":110,
			"componentType":5126,
			"count":443,
			"type":"VEC2"
		},
		{
			"bufferView":111,
			"componentType":5126,
			"count":443,
			"type":"VEC4"
		},
		{
			"bufferView":112,
			"componentType":5123,
			"count":816,
			"type":"SCALAR"
		},
		{
			"bufferView":113,
			"componentType":5126,
			"count":441,
			"max":[
				13.448500633239746,
				10.768150329589844,
				1.5223501920700073
			],
			"min":[
				0.11760009080171585,
				0.21719740331172943,
				1.2720999717712402
			],
			"type":"VEC3"
		},
		{
			"bufferView":114,
			"componentType":5126,
			"count":441,
			"type":"VEC3"
		},
		{
			"bufferView":115,
			"componentType":5126,
			"count":441,
			"type":"VEC2"
		},
		{
			"bufferView":116,
			"componentType":5126,
			"count":441,
			"type":"VEC4"
		},
		{
			"bufferView":117,
			"componentType":5123,
			"count":816,
			"type":"SCALAR"
		},
		{
			"bufferView":118,
			"componentType":5126,
			"count":24,
			"max":[
				0.009999999776482582,
				0.0002500000118743628,
				0.4000000059604645
			],
			"min":[
				-0.009999999776482582,
				-0.0002500000118743628,
				-0.4000000059604645
			],
			"type":"VEC3"
		},
		{
			"bufferView":119,
			"componentType":5126,
			"count":24,
			"type":"VEC3"
		},
		{
			"bufferView":120,
			"componentType":5126,
			"count":24,
			"type":"VEC2"
		},
		{
			"bufferView":121,
			"componentType":5126,
			"count":24,
			"type":"VEC4"
		},
		{
			"bufferView":122,
			"componentType":5123,
			"count":36,
			"type":"SCALAR"
		},
		{
			"bufferView":123,
			"componentType":5126,
			"count":24,
			"max":[
				0.04217228293418884,
				0.0002500000118743628,
				0.09100187569856644
			],
			"min":[
				-0.04217228293418884,
				-0.0002500000118743628,
				-0.09100187569856644
			],
			"type":"VEC3"
		},
		{
			"bufferView":124,
			"componentType":5126,
			"count":24,
			"type":"VEC3"
		},
		{
			"bufferView":125,
			"componentType":5126,
			"count":24,
			"type":"VEC2"
		},
		{
			"bufferView":126,
			"componentType":5126,
			"count":24,
			"type":"VEC4"
		},
		{
			"bufferView":127,
			"componentType":5123,
			"count":36,
			"type":"SCALAR"
		},
		{
			"bufferView":128,
			"componentType":5126,
			"count":24,
			"max":[
				0.04217228293418884,
				0.0002500000118743628,
				0.09100187569856644
			],
			"min":[
				-0.04217228293418884,
				-0.0002500000118743628,
				-0.09100187569856644
			],
			"type":"VEC3"
		},
		{
			"bufferView":129,
			"componentType":5126,
			"count":24,
			"type":"VEC3"
		},
		{
			"bufferView":130,
			"componentType":5126,
			"count":24,
			"type":"VEC2"
		},
		{
			"bufferView":131,
			"componentType":5126,
			"count":24,
			"type":"VEC4"
		},
		{
			"bufferView":132,
			"componentType":5123,
			"count":36,
			"type":"SCALAR"
		},
		{
			"bufferView":133,
			"componentType":5126,
			"count":24,
			"max":[
				0.03799999877810478,
				0.0002500000118743628,
				0.009999999776482582
			],
			"min":[
				-0.03799999877810478,
				-0.0002500000118743628,
				-0.009999999776482582
			],
			"type":"VEC3"
		},
		{
			"bufferView":134,
			"componentType":5126,
			"count":24,
			"type":"VEC3"
		},
		{
			"bufferView":135,
			"componentType":5126,
			"count":24,
			"type":"VEC2"
		},
		{
			"bufferView":136,
			"componentType":5126,
			"count":24,
			"type":"VEC4"
		},
		{
			"bufferView":137,
			"componentType":5126,
			"count":24,
			"max":[
				0.01000000350177288,
				0.0002500000118743628,
				0.08799999952316284
			],
			"min":[
				-0.01000000350177288,
				-0.0002500000118743628,
				-0.08799999952316284
			],
			"type":"VEC3"
		},
		{
			"bufferView":138,
			"componentType":5126,
			"count":24,
			"type":"VEC3"
		},
		{
			"bufferView":139,
			"componentType":5126,
			"count":24,
			"type":"VEC2"
		},
		{
			"bufferView":140,
			"componentType":5126,
			"count":24,
			"type":"VEC4"
		},
		{
			"bufferView":141,
			"componentType":5123,
			"count":36,
			"type":"SCALAR"
		},
		{
			"bufferView":142,
			"componentType":5126,
			"count":24,
			"max":[
				0.04800000041723251,
				0.0002500000118743628,
				0.009999999776482582
			],
			"min":[
				-0.04800000041723251,
				-0.0002500000118743628,
				-0.009999999776482582
			],
			"type":"VEC3"
		},
		{
			"bufferView":143,
			"componentType":5126,
			"count":24,
			"type":"VEC3"
		},
		{
			"bufferView":144,
			"componentType":5126,
			"count":24,
			"type":"VEC2"
		},
		{
			"bufferView":145,
			"componentType":5126,
			"count":24,
			"type":"VEC4"
		},
		{
			"bufferView":146,
			"componentType":5126,
			"count":24,
			"max":[
				0.04800000041723251,
				0.0002500000118743628,
				0.009999999776482582
			],
			"min":[
				-0.04800000041723251,
				-0.0002500000118743628,
				-0.009999999776482582
			],
			"type":"VEC3"
		},
		{
			"bufferView":147,
			"componentType":5126,
			"count":24,
			"type":"VEC3"
		},
		{
			"bufferView":148,
			"componentType":5126,
			"count":24,
			"type":"VEC2"
		},
		{
			"bufferView":149,
			"componentType":5126,
			"count":24,
			"type":"VEC4"
		},
		{
			"bufferView":150,
			"componentType":5126,
			"count":24,
			"max":[
				0.04800000041723251,
				0.0002500000118743628,
				0.009999999776482582
			],
			"min":[
				-0.04800000041723251,
				-0.0002500000118743628,
				-0.009999999776482582
			],
			"type":"VEC3"
		},
		{
			"bufferView":151,
			"componentType":5126,
			"count":24,
			"type":"VEC3"
		},
		{
			"bufferView":152,
			"componentType":5126,
			"count":24,
			"type":"VEC2"
		},
		{
			"bufferView":153,
			"componentType":5126,
			"count":24,
			"type":"VEC4"
		},
		{
			"bufferView":154,
			"componentType":5126,
			"count":24,
			"max":[
				0.025219975039362907,
				0.0002500000118743628,
				0.03208397701382637
			],
			"min":[
				-0.025219975039362907,
				-0.0002500000118743628,
				-0.03208397701382637
			],
			"type":"VEC3"
		},
		{
			"bufferView":155,
			"componentType":5126,
			"count":24,
			"type":"VEC3"
		},
		{
			"bufferView":156,
			"componentType":5126,
			"count":24,
			"type":"VEC2"
		},
		{
			"bufferView":157,
			"componentType":5126,
			"count":24,
			"type":"VEC4"
		},
		{
			"bufferView":158,
			"componentType":5126,
			"count":24,
			"max":[
				0.025219976902008057,
				0.0002500000118743628,
				0.03208397328853607
			],
			"min":[
				-0.025219976902008057,
				-0.0002500000118743628,
				-0.03208397328853607
			],
			"type":"VEC3"
		},
		{
			"bufferView":159,
			"componentType":5126,
			"count":24,
			"type":"VEC3"
		},
		{
			"bufferView":160,
			"componentType":5126,
			"count":24,
			"type":"VEC2"
		},
		{
			"bufferView":161,
			"componentType":5126,
			"count":24,
			"type":"VEC4"
		},
		{
			"bufferView":162,
			"componentType":5123,
			"count":36,
			"type":"SCALAR"
		},
		{
			"bufferView":163,
			"componentType":5126,
			"count":24,
			"max":[
				0.025219975039362907,
				0.0002500000118743628,
				0.03208397701382637
			],
			"min":[
				-0.025219975039362907,
				-0.0002500000118743628,
				-0.03208397701382637
			],
			"type":"VEC3"
		},
		{
			"bufferView":164,
			"componentType":5126,
			"count":24,
			"type":"VEC3"
		},
		{
			"bufferView":165,
			"componentType":5126,
			"count":24,
			"type":"VEC2"
		},
		{
			"bufferView":166,
			"componentType":5126,
			"count":24,
			"type":"VEC4"
		},
		{
			"bufferView":167,
			"componentType":5126,
			"count":24,
			"max":[
				0.025219976902008057,
				0.0002500000118743628,
				0.03208397328853607
			],
			"min":[
				-0.025219976902008057,
				-0.0002500000118743628,
				-0.03208397328853607
			],
			"type":"VEC3"
		},
		{
			"bufferView":168,
			"componentType":5126,
			"count":24,
			"type":"VEC3"
		},
		{
			"bufferView":169,
			"componentType":5126,
			"count":24,
			"type":"VEC2"
		},
		{
			"bufferView":170,
			"componentType":5126,
			"count":24,
			"type":"VEC4"
		}
	],
	"bufferViews":[
		{
			"buffer":0,
			"byteLength":1152,
			"byteOffset":0,
			"target":34962
		},
		{
			"buffer":0,
			"byteLength":1152,
			"byteOffset":1152,
			"target":34962
		},
		{
			"buffer":0,
			"byteLength":768,
			"byteOffset":2304,
			"target":34962
		},
		{
			"buffer":0,
			"byteLength":1536,
			"byteOffset":3072,
			"target":34962
		},
		{
			"buffer":0,
			"byteLength":264,
			"byteOffset":4608,
			"target":34963
		},
		{
			"buffer":0,
			"byteLength":1008,
			"byteOffset":4872,
			"target":34962
		},
		{
			"buffer":0,
			"byteLength":1008,
			"byteOffset":5880,
			"target":34962
		},
		{
			"buffer":0,
			"byteLength":672,
			"byteOffset":6888,
			"target":34962
		},
		{
			"buffer":0,
			"byteLength":1344,
			"byteOffset":7560,
			"target":34962
		},
		{
			"buffer":0,
			"byteLength":264,
			"byteOffset":8904,
			"target":34963
		},
		{
			"buffer":0,
			"byteLength":648,
			"byteOffset":9168,
			"target":34962
		},
		{
			"buffer":0,
			"byteLength":648,
			"byteOffset":9816,
			"target":34962
		},
		{
			"buffer":0,
			"byteLength":432,
			"byteOffset":10464,
			"target":34962
		},
		{
			"buffer":0,
			"byteLength":864,
			"byteOffset":10896,
			"target":34962
		},
		{
			"buffer":0,
			"byteLength":264,
			"byteOffset":11760,
			"target":34963
		},
		{
			"buffer":0,
			"byteLength":1152,
			"byteOffset":12024,
			"target":34962
		},
		{
			"buffer":0,
			"byteLength":1152,
			"byteOffset":13176,
			"target":34962
		},
		{
			"buffer":0,
			"byteLength":768,
			"byteOffset":14328,
			"target":34962
		},
		{
			"buffer":0,
			"byteLength":1536,
			"byteOffset":15096,
			"target":34962
		},
		{
			"buffer":0,
			"byteLength":264,
			"byteOffset":16632,
			"target":34963
		},
		{
			"buffer":0,
			"byteLength":1056,
			"byteOffset":16896,
			"target":34962
		},
		{
			"buffer":0,
			"byteLength":1056,
			"byteOffset":17952,
			"target":34962
		},
		{
			"buffer":0,
			"byteLength":704,
			"byteOffset":19008,
			"target":34962
		},
		{
			"buffer":0,
			"byteLength":1408,
			"byteOffset":19712,
			"target":34962
		},
		{
			"buffer":0,
			"byteLength":264,
			"byteOffset":21120,
			"target":34963
		},
		{
			"buffer":0,
			"byteLength":1152,
			"byteOffset":21384,
			"target":34962
		},
		{
			"buffer":0,
			"byteLength":1152,
			"byteOffset":22536,
			"target":34962
		},
		{
			"buffer":0,
			"byteLength":768,
			"byteOffset":23688,
			"target":34962
		},
		{
			"buffer":0,
			"byteLength":1536,
			"byteOffset":24456,
			"target":34962
		},
		{
			"buffer":0,
			"byteLength":264,
			"byteOffset":25992,
			"target":34963
		},
		{
			"buffer":0,
			"byteLength":936,
			"byteOffset":26256,
			"target":34962
		},
		{
			"buffer":0,
			"byteLength":936,
			"byteOffset":27192,
			"target":34962
		},
		{
			"buffer":0,
			"byteLength":624,
			"byteOffset":28128,
			"target":34962
		},
		{
			"buffer":0,
			"byteLength":1248,
			"byteOffset":28752,
			"target":34962
		},
		{
			"buffer":0,
			"byteLength":264,
			"byteOffset":30000,
			"target":34963
		},
		{
			"buffer":0,
			"byteLength":288,
			"byteOffset":30264,
			"target":34962
		},
		{
			"buffer":0,
			"byteLength":288,
			"byteOffset":30552,
			"target":34962
		},
		{
			"buffer":0,
			"byteLength":192,
			"byteOffset":30840,
			"target":34962
		},
		{
			"buffer":0,
			"byteLength":384,
			"byteOffset":31032,
			"target":34962
		},
		{
			"buffer":0,
			"byteLength":72,
			"byteOffset":31416,
			"target":34963
		},
		{
			"buffer":0,
			"byteLength":1200,
			"byteOffset":31488,
			"target":34962
		},
		{
			"buffer":0,
			"byteLength":1200,
			"byteOffset":32688,
			"target":34962
		},
		{
			"buffer":0,
			"byteLength":800,
			"byteOffset":33888,
			"target":34962
		},
		{
			"buffer":0,
			"byteLength":1600,
			"byteOffset":34688,
			"target":34962
		},
		{
			"buffer":0,
			"byteLength":552,
			"byteOffset":36288,
			"target":34963
		},
		{
			"buffer":0,
			"byteLength":1224,
			"byteOffset":36840,
			"target":34962
		},
		{
			"buffer":0,
			"byteLength":1224,
			"byteOffset":38064,
			"target":34962
		},
		{
			"buffer":0,
			"byteLength":816,
			"byteOffset":39288,
			"target":34962
		},
		{
			"buffer":0,
			"byteLength":1632,
			"byteOffset":40104,
			"target":34962
		},
		{
			"buffer":0,
			"byteLength":552,
			"byteOffset":41736,
			"target":34963
		},
		{
			"buffer":0,
			"byteLength":1224,
			"byteOffset":42288,
			"target":34962
		},
		{
			"buffer":0,
			"byteLength":1224,
			"byteOffset":43512,
			"target":34962
		},
		{
			"buffer":0,
			"byteLength":816,
			"byteOffset":44736,
			"target":34962
		},
		{
			"buffer":0,
			"byteLength":1632,
			"byteOffset":45552,
			"target":34962
		},
		{
			"buffer":0,
			"byteLength":1200,
			"byteOffset":47184,
			"target":34962
		},
		{
			"buffer":0,
			"byteLength":1200,
			"byteOffset":48384,
			"target":34962
		},
		{
			"buffer":0,
			"byteLength":800,
			"byteOffset":49584,
			"target":34962
		},
		{
			"buffer":0,
			"byteLength":1600,
			"byteOffset":50384,
			"target":34962
		},
		{
			"buffer":0,
			"byteLength":288,
			"byteOffset":51984,
			"target":34962
		},
		{
			"buffer":0,
			"byteLength":288,
			"byteOffset":52272,
			"target":34962
		},
		{
			"buffer":0,
			"byteLength":192,
			"byteOffset":52560,
			"target":34962
		},
		{
			"buffer":0,
			"byteLength":384,
			"byteOffset":52752,
			"target":34962
		},
		{
			"buffer":0,
			"byteLength":72,
			"byteOffset":53136,
			"target":34963
		},
		{
			"buffer":0,
			"byteLength":768,
			"byteOffset":53208,
			"target":34962
		},
		{
			"buffer":0,
			"byteLength":768,
			"byteOffset":53976,
			"target":34962
		},
		{
			"buffer":0,
			"byteLength":512,
			"byteOffset":54744,
			"target":34962
		},
		{
			"buffer":0,
			"byteLength":1024,
			"byteOffset":55256,
			"target":34962
		},
		{
			"buffer":0,
			"byteLength":264,
			"byteOffset":56280,
			"target":34963
		},
		{
			"buffer":0,
			"byteLength":960,
			"byteOffset":56544,
			"target":34962
		},
		{
			"buffer":0,
			"byteLength":960,
			"byteOffset":57504,
			"target":34962
		},
		{
			"buffer":0,
			"byteLength":640,
			"byteOffset":58464,
			"target":34962
		},
		{
			"buffer":0,
			"byteLength":1280,
			"byteOffset":59104,
			"target":34962
		},
		{
			"buffer":0,
			"byteLength":264,
			"byteOffset":60384,
			"target":34963
		},
		{
			"buffer":0,
			"byteLength":5256,
			"byteOffset":60648,
			"target":34962
		},
		{
			"buffer":0,
			"byteLength":5256,
			"byteOffset":65904,
			"target":34962
		},
		{
			"buffer":0,
			"byteLength":3504,
			"byteOffset":71160,
			"target":34962
		},
		{
			"buffer":0,
			"byteLength":7008,
			"byteOffset":74664,
			"target":34962
		},
		{
			"buffer":0,
			"byteLength":1632,
			"byteOffset":81672,
			"target":34963
		},
		{
			"buffer":0,
			"byteLength":5472,
			"byteOffset":83304,
			"target":34962
		},
		{
			"buffer":0,
			"byteLength":5472,
			"byteOffset":88776,
			"target":34962
		},
		{
			"buffer":0,
			"byteLength":3648,
			"byteOffset":94248,
			"target":34962
		},
		{
			"buffer":0,
			"byteLength":7296,
			"byteOffset":97896,
			"target":34962
		},
		{
			"buffer":0,
			"byteLength":1632,
			"byteOffset":105192,
			"target":34963
		},
		{
			"buffer":0,
			"byteLength":5400,
			"byteOffset":106824,
			"target":34962
		},
		{
			"buffer":0,
			"byteLength":5400,
			"byteOffset":112224,
			"target":34962
		},
		{
			"buffer":0,
			"byteLength":3600,
			"byteOffset":117624,
			"target":34962
		},
		{
			"buffer":0,
			"byteLength":7200,
			"byteOffset":121224,
			"target":34962
		},
		{
			"buffer":0,
			"byteLength":1632,
			"byteOffset":128424,
			"target":34963
		},
		{
			"buffer":0,
			"byteLength":5304,
			"byteOffset":130056,
			"target":34962
		},
		{
			"buffer":0,
			"byteLength":5304,
			"byteOffset":135360,
			"target":34962
		},
		{
			"buffer":0,
			"byteLength":3536,
			"byteOffset":140664,
			"target":34962
		},
		{
			"buffer":0,
			"byteLength":7072,
			"byteOffset":144200,
			"target":34962
		},
		{
			"buffer":0,
			"byteLength":1632,
			"byteOffset":151272,
			"target":34963
		},
		{
			"buffer":0,
			"byteLength":5220,
			"byteOffset":152904,
			"target":34962
		},
		{
			"buffer":0,
			"byteLength":5220,
			"byteOffset":158124,
			"target":34962
		},
		{
			"buffer":0,
			"byteLength":3480,
			"byteOffset":163344,
			"target":34962
		},
		{
			"buffer":0,
			"byteLength":6960,
			"byteOffset":166824,
			"target":34962
		},
		{
			"buffer":0,
			"byteLength":1632,
			"byteOffset":173784,
			"target":34963
		},
		{
			"buffer":0,
			"byteLength":5016,
			"byteOffset":175416,
			"target":34962
		},
		{
			"buffer":0,
			"byteLength":5016,
			"byteOffset":180432,
			"target":34962
		},
		{
			"buffer":0,
			"byteLength":3344,
			"byteOffset":185448,
			"target":34962
		},
		{
			"buffer":0,
			"byteLength":6688,
			"byteOffset":188792,
			"target":34962
		},
		{
			"buffer":0,
			"byteLength":1632,
			"byteOffset":195480,
			"target":34963
		},
		{
			"buffer":0,
			"byteLength":5556,
			"byteOffset":197112,
			"target":34962
		},
		{
			"buffer":0,
			"byteLength":5556,
			"byteOffset":202668,
			"target":34962
		},
		{
			"buffer":0,
			"byteLength":3704,
			"byteOffset":208224,
			"target":34962
		},
		{
			"buffer":0,
			"byteLength":7408,
			"byteOffset":211928,
			"target":34962
		},
		{
			"buffer":0,
			"byteLength":1632,
			"byteOffset":219336,
			"target":34963
		},
		{
			"buffer":0,
			"byteLength":5316,
			"byteOffset":220968,
			"target":34962
		},
		{
			"buffer":0,
			"byteLength":5316,
			"byteOffset":226284,
			"target":34962
		},
		{
			"buffer":0,
			"byteLength":3544,
			"byteOffset":231600,
			"target":34962
		},
		{
			"buffer":0,
			"byteLength":7088,
			"byteOffset":235144,
			"target":34962
		},
		{
			"buffer":0,
			"byteLength":1632,
			"byteOffset":242232,
			"target":34963
		},
		{
			"buffer":0,
			"byteLength":5292,
			"byteOffset":243864,
			"target":34962
		},
		{
			"buffer":0,
			"byteLength":5292,
			"byteOffset":249156,
			"target":34962
		},
		{
			"buffer":0,
			"byteLength":3528,
			"byteOffset":254448,
			"target":34962
		},
		{
			"buffer":0,
			"byteLength":7056,
			"byteOffset":257976,
			"target":34962
		},
		{
			"buffer":0,
			"byteLength":1632,
			"byteOffset":265032,
			"target":34963
		},
		{
			"buffer":0,
			"byteLength":288,
			"byteOffset":266664,
			"target":34962
		},
		{
			"buffer":0,
			"byteLength":288,
			"byteOffset":266952,
			"target":34962
		},
		{
			"buffer":0,
			"byteLength":192,
			"byteOffset":267240,
			"target":34962
		},
		{
			"buffer":0,
			"byteLength":384,
			"byteOffset":267432,
			"target":34962
		},
		{
			"buffer":0,
			"byteLength":72,
			"byteOffset":267816,
			"target":34963
		},
		{
			"buffer":0,
			"byteLength":288,
			"byteOffset":267888,
			"target":34962
		},
		{
			"buffer":0,
			"byteLength":288,
			"byteOffset":268176,
			"target":34962
		},
		{
			"buffer":0,
			"byteLength":192,
			"byteOffset":268464,
			"target":34962
		},
		{
			"buffer":0,
			"byteLength":384,
			"byteOffset":268656,
			"target":34962
		},
		{
			"buffer":0,
			"byteLength":72,
			"byteOffset":269040,
			"target":34963
		},
		{
			"buffer":0,
			"byteLength":288,
			"byteOffset":269112,
			"target":34962
		},
		{
			"buffer":0,
			"byteLength":288,
			"byteOffset":269400,
			"target":34962
		},
		{
			"buffer":0,
			"byteLength":192,
			"byteOffset":269688,
			"target":34962
		},
		{
			"buffer":0,
			"byteLength":384,
			"byteOffset":269880,
			"target":34962
		},
		{
			"buffer":0,
			"byteLength":72,
			"byteOffset":270264,
			"target":34963
		},
		{
			"buffer":0,
			"byteLength":288,
			"byteOffset":270336,
			"target":34962
		},
		{
			"buffer":0,
			"byteLength":288,
			"byteOffset":270624,
			"target":34962
		},
		{
			"buffer":0,
			"byteLength":192,
			"byteOffset":270912,
			"target":34962
		},
		{
			"buffer":0,
			"byteLength":384,
			"byteOffset":271104,
			"target":34962
		},
		{
			"buffer":0,
			"byteLength":288,
			"byteOffset":271488,
			"target":34962
		},
		{
			"buffer":0,
			"byteLength":288,
			"byteOffset":271776,
			"target":34962
		},
		{
			"buffer":0,
			"byteLength":192,
			"byteOffset":272064,
			"target":34962
		},
		{
			"buffer":0,
			"byteLength":384,
			"byteOffset":272256,
			"target":34962
		},
		{
			"buffer":0,
			"byteLength":72,
			"byteOffset":272640,
			"target":34963
		},
		{
			"buffer":0,
			"byteLength":288,
			"byteOffset":272712,
			"target":34962
		},
		{
			"buffer":0,
			"byteLength":288,
			"byteOffset":273000,
			"target":34962
		},
		{
			"buffer":0,
			"byteLength":192,
			"byteOffset":273288,
			"target":34962
		},
		{
			"buffer":0,
			"byteLength":384,
			"byteOffset":273480,
			"target":34962
		},
		{
			"buffer":0,
			"byteLength":288,
			"byteOffset":273864,
			"target":34962
		},
		{
			"buffer":0,
			"byteLength":288,
			"byteOffset":274152,
			"target":34962
		},
		{
			"buffer":0,
			"byteLength":192,
			"byteOffset":274440,
			"target":34962
		},
		{
			"buffer":0,
			"byteLength":384,
			"byteOffset":274632,
			"target":34962
		},
		{
			"buffer":0,
			"byteLength":288,
			"byteOffset":275016,
			"target":34962
		},
		{
			"buffer":0,
			"byteLength":288,
			"byteOffset":275304,
			"target":34962
		},
		{
			"buffer":0,
			"byteLength":192,
			"byteOffset":275592,
			"target":34962
		},
		{
			"buffer":0,
			"byteLength":384,
			"byteOffset":275784,
			"target":34962
		},
		{
			"buffer":0,
			"byteLength":288,
			"byteOffset":276168,
			"target":34962
		},
		{
			"buffer":0,
			"byteLength":288,
			"byteOffset":276456,
			"target":34962
		},
		{
			"buffer":0,
			"byteLength":192,
			"byteOffset":276744,
			"target":34962
		},
		{
			"buffer":0,
			"byteLength":384,
			"byteOffset":276936,
			"target":34962
		},
		{
			"buffer":0,
			"byteLength":288,
			"byteOffset":277320,
			"target":34962
		},
		{
			"buffer":0,
			"byteLength":288,
			"byteOffset":277608,
			"target":34962
		},
		{
			"buffer":0,
			"byteLength":192,
			"byteOffset":277896,
			"target":34962
		},
		{
			"buffer":0,
			"byteLength":384,
			"byteOffset":278088,
			"target":34962
		},
		{
			"buffer":0,
			"byteLength":72,
			"byteOffset":278472,
			"target":34963
		},
		{
			"buffer":0,
			"byteLength":288,
			"byteOffset":278544,
			"target":34962
		},
		{
			"buffer":0,
			"byteLength":288,
			"byteOffset":278832,
			"target":34962
		},
		{
			"buffer":0,
			"byteLength":192,
			"byteOffset":279120,
			"target":34962
		},
		{
			"buffer":0,
			"byteLength":384,
			"byteOffset":279312,
			"target":34962
		},
		{
			"buffer":0,
			"byteLength":288,
			"byteOffset":279696,
			"target":34962
		},
		{
			"buffer":0,
			"byteLength":288,
			"byteOffset":279984,
			"target":34962
		},
		{
			"buffer":0,
			"byteLength":192,
			"byteOffset":280272,
			"target":34962
		},
		{
			"buffer":0,
			"byteLength":384,
			"byteOffset":280464,
			"target":34962
		}
	],
	"samplers":[
		{
			"magFilter":9729,
			"minFilter":9987
		}
	],
	"buffers":[
		{
			"byteLength":280848,
			"uri":"table_vla.bin"
		}
	]
}
